<?xml version="1.0" encoding="UTF-8"?><svg id="Layer_1" xmlns="http://www.w3.org/2000/svg" viewBox="0 0 1100 50"><defs><style>.cls-1,.cls-2{fill:#fff;}.cls-3{fill:#5eab77;}.cls-4{fill:#219ebc;}.cls-5{fill:#d52a28;}.cls-2{stroke:#fff;stroke-miterlimit:10;stroke-width:.1px;}.cls-6{fill:#fbd008;}.cls-7{fill:#8e4d0d;}.cls-8{fill:#fb4a08;}.cls-9{fill:#07292d;}.cls-10{fill:#741aa8;}</style></defs><g><polygon class="cls-1" points="0 49.95 .05 0 100 .05 99.95 49.95 0 49.95"/><path class="cls-1" d="M99.9,.1V49.9H.1V.1H99.9m.1-.1H0V50H100V0h0Z"/></g><g><polygon class="cls-6" points="100 49.95 100.05 0 200 .05 199.95 49.95 100 49.95"/><path class="cls-1" d="M199.9,.1V49.9H100.1V.1h99.8m.1-.1H100V50h100V0h0Z"/></g><g><polygon class="cls-8" points="200 49.95 200.05 0 300 .05 299.95 49.95 200 49.95"/><path class="cls-1" d="M299.9,.1V49.9h-99.8V.1h99.8m.1-.1h-100V50h100V0h0Z"/></g><g><polygon class="cls-3" points="300 49.95 300.05 0 400 .05 399.95 49.95 300 49.95"/><path class="cls-1" d="M399.9,.1V49.9h-99.8V.1h99.8m.1-.1h-100V50h100V0h0Z"/></g><g><polygon class="cls-10" points="400 49.95 400.05 0 500 .05 499.95 49.95 400 49.95"/><path class="cls-1" d="M499.9,.1V49.9h-99.8V.1h99.8m.1-.1h-100V50h100V0h0Z"/></g><g><polygon class="cls-4" points="500 49.95 500.05 0 600 .05 599.95 49.95 500 49.95"/><path class="cls-1" d="M599.9,.1V49.9h-99.8V.1h99.8m.1-.1h-100V50h100V0h0Z"/></g><g><polygon class="cls-9" points="600 49.95 600.05 0 700 .05 699.95 49.95 600 49.95"/><path class="cls-1" d="M699.9,.1V49.9h-99.8V.1h99.8m.1-.1h-100V50h100V0h0Z"/></g><g><polygon class="cls-7" points="700 49.95 700.05 0 800 .05 799.95 49.95 700 49.95"/><path class="cls-1" d="M799.9,.1V49.9h-99.8V.1h99.8m.1-.1h-100V50h100V0h0Z"/></g><g><polygon class="cls-5" points="800 49.95 800.05 0 900 .05 899.95 49.95 800 49.95"/><path class="cls-1" d="M899.9,.1V49.9h-99.8V.1h99.8m.1-.1h-100V50h100V0h0Z"/></g><g><polygon points="1000 49.95 1000.05 0 1100 .05 1099.95 49.95 1000 49.95"/><path class="cls-1" d="M1099.9,.1V49.9h-99.8V.1h99.8m.1-.1h-100V50h100V0h0Z"/></g><g><g><polygon points="900 49.95 900.05 0 1000 .05 999.95 49.95 900 49.95"/><path class="cls-1" d="M999.9,.1V49.9h-99.8V.1h99.8m.1-.1h-100V50h100V0h0Z"/></g><rect class="cls-2" x="900" y="19" width="100" height="12"/></g></svg>