<?xml version="1.0" encoding="UTF-8"?><svg id="a" xmlns="http://www.w3.org/2000/svg" viewBox="0 0 609.02 609.02"><defs><style>.b,.c,.d,.e{fill:#fff;}.f{stroke:#fff;}.f,.c,.g,.d,.e{stroke-miterlimit:10;}.f,.g{fill:none;}.c{stroke:#e6e7e8;stroke-width:.1px;}.h{fill:#5eab77;}.i{fill:#219ebc;}.j{fill:#d52a28;}.g,.d{stroke:#219ebc;}.k{fill:#fbd008;}.e{stroke:#fbd008;}</style></defs><circle class="c" cx="304.51" cy="304.51" r="304.46"/><g><path class="h" d="M24.69,223.71c6.88-24.49,15.88-43.82,22.66-56.6,7.33-13.83,19.76-34.54,39.25-56.44,10.82-12.16,25.35-26.42,44.14-40.29,17.73-13.09,33.79-21.8,44.99-27.24,26-12.64,48.01-18.46,58.46-20.91,3.87-.91,19.55-4.5,40.63-6.48,10.39-.97,19.34-1.3,26.29-1.37V301.44H14.04c-.01-12.41,.78-28.39,3.79-46.76,2.04-12.41,4.6-22.91,6.86-30.97Z"/><path class="i" d="M385.63,25.02c24.49,6.88,43.82,15.88,56.6,22.66,13.83,7.33,34.54,19.76,56.44,39.25,12.16,10.82,26.42,25.35,40.29,44.14,13.09,17.73,21.8,33.79,27.24,44.99,12.64,26,18.46,48.01,20.91,58.46,.91,3.87,4.5,19.55,6.48,40.63,.97,10.39,1.3,19.34,1.37,26.29H307.9V14.37c12.41-.01,28.39,.78,46.76,3.79,12.41,2.04,22.91,4.6,30.97,6.86Z"/><path class="k" d="M584.32,385.3c-6.88,24.49-15.88,43.82-22.66,56.6-7.33,13.83-19.76,34.54-39.25,56.44-10.82,12.16-25.35,26.42-44.14,40.29-17.73,13.09-33.79,21.8-44.99,27.24-26,12.64-48.01,18.46-58.46,20.91-3.87,.91-19.55,4.5-40.63,6.48-10.39,.97-19.34,1.3-26.29,1.37V307.57h287.07c.01,12.41-.78,28.39-3.79,46.76-2.04,12.41-4.6,22.91-6.86,30.97Z"/><path class="j" d="M223.38,584c-24.49-6.88-43.82-15.88-56.6-22.66-13.83-7.33-34.54-19.76-56.44-39.25-12.16-10.82-26.42-25.35-40.29-44.14-13.09-17.73-21.8-33.79-27.24-44.99-12.64-26-18.46-48.01-20.91-58.46-.91-3.87-4.5-19.55-6.48-40.63-.97-10.39-1.3-19.34-1.37-26.29H301.11v287.07c-12.41,.01-28.39-.78-46.76-3.79-12.41-2.04-22.91-4.6-30.97-6.86Z"/><path class="b" d="M100.61,265.19l2.35-118.77h-5l-3.53-4.04,26.17-32.05h55.29l35-36.9,33.82,35.82,14.7,.54,8.82,23.7,10.59,10.77v2.15l-4.71,5.39-1.76-.54-6.76-6.46c.67,40.42,1.35,80.83,2.02,121.25-55.67-.29-111.34-.58-167-.87Z"/><rect class="h" x="114.43" y="222.83" width="13.53" height="32.94"/><rect class="h" x="132.96" y="222.83" width="12.65" height="32.94"/><rect class="h" x="173.71" y="222.31" width="19.12" height="44.25"/><rect class="h" x="207.66" y="220.77" width="14.41" height="35"/><rect class="h" x="225.89" y="220.77" width="15" height="35"/><rect class="h" x="245.3" y="220.77" width="14.12" height="35"/><rect class="h" x="222.07" y="158.13" width="13.53" height="27.35"/><rect class="h" x="203.83" y="158.13" width="13.53" height="27.35"/><rect class="h" x="185.3" y="158.13" width="13.82" height="27.35"/><rect class="h" x="123.55" y="161.66" width="14.12" height="27.35"/><g><polygon class="d" points="331.49 124.77 414.32 109.52 497.15 119.2 446.98 131.59 412.83 140.02 331.49 124.77"/><path class="d" d="M450.57,142.56c3.37,11.88,4.85,22.86,5.36,32.32-3.82,3.4-8.71,7.17-14.77,10.65-9.72,5.6-18.85,8.39-25.63,9.87-5.04-.9-11.92-2.69-19.4-6.48-9.3-4.71-15.71-10.58-19.61-14.77,.6-10.03,1.67-20.58,3.36-31.58,.44-2.87,.91-5.7,1.41-8.47l31.54,5.91,34.15-8.43c1.28,3.43,2.49,7.09,3.59,10.97Z"/><ellipse class="g" cx="414.35" cy="119.41" rx="5.36" ry="2.18"/><path class="d" d="M465.37,123.33c.91,.21,2.12,.54,2.83,1.58,.42,.62,.56,1.27,.54,1.63-.21,5.08-.42,10.17-.64,15.25-.21,.21-.84,.9-1,2-.16,1.15,.31,2.02,.45,2.27-.67,.65-1.7,1.86-2.09,3.63-.34,1.54-.04,2.8,.27,4.09,.39,1.6,.99,2.83,1.45,3.63l-.27,7.54c-.38,.34-.92,.9-1.36,1.72-.55,1.03-.69,1.99-.73,2.54-.21,31.94-.42,63.89-.62,95.83,.8-1.32,1.6-2.65,2.39-3.97,.23,2.31,.64,5.33,1.29,5.36,.73,.03,1.36-3.77,1.79-3.71,.52,.08-.09,5.67,.51,5.78,.55,.1,1.57-4.56,2.24-4.47,.41,.06,.53,1.86,.52,4.24l-.41-98.06c.07-.6,.1-1.68-.36-2.91-.29-.77-.68-1.34-1-1.72l.09-7.9c.48-.73,1.17-2,1.45-3.72,.16-1.01,.33-3.04-.64-5.27-.7-1.62-1.71-2.68-2.36-3.27,.17-.23,.66-.96,.64-2-.02-.74-.3-1.28-.45-1.54l.72-15.08c-.16-.96-.53-2.27-1.54-3.35-1.35-1.44-3.19-1.8-8.73-2.13-4.31-.26-7.74-.31-8.53-.32-2.41-.04-5.51-.1-9.13-.21-7.73-.28-15.46-.57-23.19-.85-.44,.32-.88,.64-1.32,.96,3,.14,6,.28,9,.42,6.64,.43,13.48,.74,20.5,.92,3.27,.08,6.49,.13,9.67,.15,1.61,.05,4.93,.22,7.98,.92Z"/></g><path class="b" d="M172.41,382.43c2.12-3.43,6.09-8.81,12.78-13.26,2.47-1.64,7.79-5.11,15.71-6.38,2.23-.36,8.49-1.16,16.12,.9,2.42,.65,7.71,2.33,13.26,6.47,5.23,3.89,8.2,8.1,9.33,9.82,.76,1.15,3.24,5.06,4.91,10.8,.47,1.62,2.01,7.29,1.55,14.89-.53,8.77-3.42,15.09-5.48,19.48-1.37,2.91-4.2,8.41-12.28,18.17-8.07,9.75-15.28,16.38-18.87,19.64-8.84,8.04-21.22,18.86-37.04,31.43-16.06-12.83-29.06-24.33-38.86-33.39-7.3-6.75-15.74-14.85-23.81-27.09-4.73-7.17-8.41-14.35-10.15-23.24-1.65-8.43-.73-14.2-.41-15.96,1.21-6.68,3.88-11.3,4.77-12.77,3.48-5.71,7.62-8.93,10.08-10.8,1.96-1.5,5.82-4.38,11.67-6.38,7.58-2.59,13.92-2.12,16.78-1.88,2.75,.23,6.37,.57,10.72,2.37,4.47,1.86,7.5,4.36,9.33,5.89,2.53,2.12,4.26,4.09,5.4,5.4,1.94,2.23,3.42,4.28,4.49,5.89Z"/><g><path class="e" d="M401.81,417.44c-5.61-2.12-11.21-4.24-16.82-6.36-3.83-1.55-6.6-3.37-8.41-4.75-2.06-1.56-3.08-2.69-3.77-3.58-1.39-1.8-2.81-3.63-2.64-6.02,.19-2.57,2.1-4.3,2.82-4.9-3.51,2.05-4.64,4.3-5.08,5.65-.76,2.34-.11,4.1,1.13,10.36,.63,3.15,1.06,5.72,1.32,7.34l.75,9.6,.19,3.58c2.06-.56,5.27-1.43,9.23-2.45,6.33-1.63,7.81-1.92,10.17-2.75,2.74-.96,6.65-2.63,11.11-5.73Z"/><path class="e" d="M373,391.83c4.27-3.51,13.99-7.89,14.87-8.28,3.2-1.67,7.95-3.83,13.99-5.42,4.45-1.17,7.82-1.53,14.39-2.21,7.98-.82,13.96-1.02,22.88-1.27,8.41-.24,12.61-.36,15.39-.14,7.78,.6,13.47,2.14,20.19,3.95,9.51,2.57,14.83,4.9,16.9,5.84,9.61,4.37,12.54,7.68,13.93,10.92,.53,1.23,1.54,3.67,.61,6.03-.78,1.98-2.55,2.97-6.07,4.89-1.72,.93-3.99,2.03-6.78,3.01-4.19-2.76-9.87-6.06-16.95-9.04-3.28-1.38-9.02-3.76-16.95-5.46-2.21-.48-11.18-2.31-23.16-1.88-5.78,.21-9.89,.86-16.38,1.88-7.68,1.21-12.1,1.91-18.07,3.95-7.9,2.7-12.95,5.84-14.69,6.97-2.31,1.5-4.15,2.91-5.45,3.97-3.79-1.83-6.28-4.01-7.72-5.49-2.19-2.23-2.98-3.85-3.37-5.27-.21-.77-.5-1.92-.17-3.31,.36-1.52,1.35-2.62,2.59-3.64Z"/><path class="e" d="M460.6,418.57c2.83-.47,14.22-2.41,24.57-6.07,1.16-.41,4.19-1.65,10.23-4.14,0,0,.3-.12,6.27-3.09,1.68-.84,2.69-1.35,3.55-2.52,1.17-1.58,1.3-3.32,1.32-3.96,.05-2.12-.89-3.65-1.95-5.38-.95-1.55-1.97-2.67-2.69-3.38,1.16,.7,2.47,1.74,3.6,3.25,1.39,1.85,1.93,3.68,2.26,4.8,.19,.65,.31,1.2,.39,1.6,.03,1.23,.03,3.05-.17,5.25-.22,2.39-.49,3.27-.91,5.84-1.04,6.29-.68,8.7-1.56,12.39-.07,.31-.47,1.9-.99,4.16l-.42,1.84c-3.34-.75-6.68-1.51-10.03-2.26-1.78-.42-12.66-2.99-13.13-3.11-8.71-2.06-9.04-2.14-10.17-2.12-2.17,.05-4.56,.45-7.2-.85-1.39-.68-2.36-1.59-2.97-2.26Z"/><path class="e" d="M409.53,416.97c-1.18-.2-2.93-.35-4.99,0-1.55,.26-2.82,.73-3.75,1.16-2.08,1.37-5.31,3.26-9.54,4.84-2.51,.94-3.83,1.19-9.99,2.76-6.65,1.68-9.97,2.53-12.97,3.44-5.77,1.75-5.86,2.26-12.99,4.75-7.31,2.55-8.93,2.61-16.66,5.08-3.83,1.22-9.32,3.09-15.91,5.74v15.64l23.63-4.81,19.2-2.64,21.56-3.39c4.24-.38,9.05-1.14,14.22-2.54,2.13-.58,4.14-1.21,6.02-1.88,.78-1.97,2.19-4.84,4.71-7.72,2.18-2.5,4.44-4.14,6.12-5.18l5.18-2.54c-1.88-1.02-4.05-2.36-6.31-4.14-2.14-1.68-3.88-3.38-5.27-4.9l-2.26-3.67Z"/><path class="e" d="M460.6,418.57l2.43,1.98c.62,.32,1.56,.74,2.76,1.03,2.3,.55,3.06,0,5.59,.11,1.1,.05,3.33,.48,7.7,1.67,3.16,.86,6.39,1.49,9.57,2.26,3.62,.88,8.82,2.1,15.44,3.54,2.93,.64,5.87,1.29,8.8,1.93l7.54,1.22,20.99,4.05-.56,21.37-23.63-1.41-15.06-1.41c-7.29-.29-12.97-.85-16.85-1.32-2.57-.31-4.96-.65-7.91-1.41-3.25-.84-5.88-1.84-7.72-2.64l-4.99-2.45c-1.05,.17-2.47,.26-4.1,0-.72-.12-1.37-.29-1.93-.47,1.31-.51,4.59-2,7.06-5.55,2.42-3.49,2.66-6.94,2.73-8.19,.1-1.73,.28-5.02-1.79-8.19-1.09-1.67-2.41-2.71-3.29-3.29l-2.78-2.82Z"/><path class="e" d="M441.04,405.65c-.45-.51-.88-.86-1.55-1.77-.83-1.11-.87-1.51-1.34-1.79-.55-.33-1.55-.4-3.53,.8-.92,.83-2.39,2.05-4.38,3.25-.98,.59-1.67,.93-4.8,2.4-3.86,1.81-5.79,2.72-6.07,2.82-6,2.19-7.13,2.47-7.13,2.47-.69,.17-2.12,.51-2.61,1.62-.24,.55-.18,1.12-.09,1.51,.52,.99,1.25,2.27,2.26,3.67,0,0,.93,1.29,1.93,2.4,2.73,3.03,6.18,4.88,8.61,6.17,3.05,1.61,2.74,1.26,6.28,2.92,4.24,1.98,4.93,2.41,6.73,3.07,2.63,.96,4.87,1.46,6.33,1.74,.29-1.59,.7-4.04,.99-7.06,.1-1.07,.34-3.74,.42-11.3,.02-2.22,.04-5.29,0-8.97-.57-1.99-1.38-3.2-2.05-3.95Z"/><path class="e" d="M422.92,429.51c-1.18,.62-2.82,1.52-4.73,2.71-1.92,1.19-2.9,1.81-4.01,2.77-2.02,1.74-3.22,3.45-3.88,4.41-.72,1.05-2,3.06-2.93,5.72-.38,1.09-.52,1.81-.78,3.25-.29,1.61-.25,2.14,0,2.61,.43,.8,1.32,1.1,1.84,1.27,2.5,.81,3.75,1.21,6.14,1.62,1.96,.34,1.01,.37,6.71,1.91,1.63,.44,3.28,.81,6.57,1.55,2.08,.47,4.01,.88,6.21,.4,.96-.21,1.72-.54,2.33-1.18,.78-.81,.99-1.79,1.06-2.26l.56-1.62c-.02,.05-.27,.64-.92,.78-.52,.11-.92-.16-.99-.21,.16-.59,.44-1.57,.85-2.75,.54-1.58,.93-2.39,1.84-4.66,.65-1.62,.99-2.47,1.34-3.46,.45-1.27,1.04-3.11,1.55-5.44l-5.24-1.36-6.14-2.65-5.19-2.35-2.19-1.06Z"/><path class="e" d="M440.39,404.95c1.17,.11,2.91,.43,4.75,1.4,1.13,.6,1.87,1.22,3.32,2.47,2.73,2.38,4.8,4.27,5.15,4.59,1.47,1.34,3.64,3.17,6.57,5.15,1.37,1.16,2.74,2.33,4.11,3.49,.78,.63,2.02,1.79,2.95,3.6,.91,1.77,1.1,3.31,1.23,4.48,.09,.8,.28,3.1-.48,5.94-.77,2.88-2.11,4.79-2.47,5.27-1.55,2.13-3.26,3.31-3.92,3.74-1.39,.9-2.58,1.32-3.68,1.71-2.23,.79-3.31,.81-5.44,1.27-5.84,1.27-9.39,3.62-12.09,3.95-.59,.07-1.22,.06-1.92,.49-.64,.4-.98,.94-1.62,.94-.32,0-.58-.13-.74-.23,.32-1.07,.83-2.68,1.54-4.6,.79-2.14,1.29-3.18,1.78-4.4,1.55-3.82,2.15-7.1,2.51-9.03,.39-2.11,.53-4.3,.81-8.68,.34-5.28,.19-6.84,.38-11.76,.01-.27,.05-1.32,0-2.72-.05-1.17-.07-1.85-.23-2.61-.17-.82-.56-2.07-1.58-3.47l-.91-1Z"/></g><line class="f" x1="14.04" y1="307.57" x2="594.98" y2="307.57"/></g></svg>