<?xml version="1.0" encoding="UTF-8"?><svg id="Layer_1" xmlns="http://www.w3.org/2000/svg" xmlns:xlink="http://www.w3.org/1999/xlink" viewBox="0 0 17.81 22"><defs><style>.cls-1{fill:#071f22;}.cls-2{clip-path:url(#clippath);}.cls-3{fill:none;}</style><clipPath id="clippath"><rect class="cls-3" x="0" y="0" width="17.81" height="22"/></clipPath></defs><g class="cls-2"><g id="Group_78"><path id="Path_66" class="cls-1" d="M5.81,10.3c.05,.71-.02,1.43-.19,2.12-.1,.35-.07,1.26,0,3.07,.07,1.76,.13,3.35,.19,5.01h1.59c.02,.15,.03,.3,.03,.45,0,.41-.08,.57,.01,.69,.06,.08,.22,.14,.64,.04,.24-.04,.49,0,.72,.08,.3,.16,.63,.24,.97,.25,.12,0,.23-.02,.31-.03,.09,0,.17-.03,.24-.07,.05-.02,.08-.07,.1-.12,0-.02,0-.03,0-.05-.02-.06-.09-.08-.1-.08h-.2l-.26-.07-.38-.19-.34-.29-.35-.3-.29-.31-.05-.14c.02-.62,0-1.25-.08-1.87-.06-.51-.13-.83-.18-1.44-.03-.42-.04-.85-.03-1.28l.05-.84,.14-1.13,.18-.59,.54-.25s.12-.12,.22-.2c.06-.05,.11-.1,.17-.15,.12-.14,.08-.22,.21-.36,.04-.05,.09-.1,.15-.13,.1-.04,.21-.05,.32-.03,.11,0,.27,.02,.47,.02l.43,.08c-.03,.12-.06,.25-.08,.38-.01,.07-.02,.24-.03,.4,0,.13-.01,.26-.01,.31,.13,.06,.27,.1,.41,.13,.15,.04,.31,.05,.46,.04,.23-.02,.47-.02,.7-.04,.33-.03,.66,0,.99,.05h.75l.3-.34,.36-.51,.37-.52c.12-.13,.22-.28,.31-.43,.1-.16,.18-.34,.24-.52,.07-.22,.12-.44,.14-.67,.02-.31,0-.62-.08-.93-.07-.3-.13-.35-.19-.67-.04-.19-.06-.38-.06-.58v-.3l.05-.34,.12-.22c.16-.02,.32-.05,.47-.1,.2-.06,.4-.15,.58-.25,.14-.07,.27-.16,.4-.25,.15-.09,.27-.21,.38-.35,.09-.14,.14-.3,.16-.46,.02-.14,.03-.28,.02-.41,0-.12,0-.24,0-.36-.02-.15-.05-.29-.1-.43-.07-.2-.18-.38-.32-.53-.14-.18-.31-.32-.51-.43-.21-.11-.44-.17-.68-.19-.2-.03-.41-.02-.61,.03-.15,.04-.29,.1-.42,.19-.12,.07-.21,.17-.28,.28-.04,.11-.06,.22-.06,.34-.01,.11-.02,.2-.02,.27l-.12,.21-.13,.03s-.08,.04-.13,.07c-.1,.05-.12,.07-.12,.09-.02,.06,.03,.13,.05,.15l-.06,.12-.06,.05v.08l-.12,.04v.08l-.03,.14-.03,.33c-.06,.06-.07,.16-.03,.23,.02,.04,.06,.07,.1,.09l.19,.19-.08,.12c-.18-.11-.4-.17-.62-.16-.03-.12-.08-.23-.15-.32-.1-.12-.22-.21-.35-.29-.21-.12-.43-.21-.67-.27-.22-.06-.24-.04-.47-.12-.15-.05-.18-.07-.41-.15-.12-.04-.31-.11-.54-.17-.19-.05-.39-.1-.58-.13-.58-.1-1.17-.12-1.76-.05-.14,.11-.27,.25-.36,.4-.07,.12-.13,.25-.17,.39-.05,.14-.08,.29-.1,.44-.02,.16-.02,.33,0,.49,.02,.27,.02,.54,0,.8l-.74-.42c-.27-.28-.5-.5-.66-.64-.37-.34-.76-.69-1.31-1.2-.13-.12-.25-.25-.34-.4-.19-.32-.13-.48-.3-.87-.1-.22-.23-.43-.38-.62-.17-.24-.37-.46-.58-.65L1.71,.68l-.16,.13-.14,.08-.1-.17c-.06-.09-.11-.18-.15-.27-.09-.21-.08-.31-.19-.38C.92,.02,.84,0,.77,0c-.07,0-.13,.02-.19,.05-.07,.03-.13,.07-.18,.12L.24,.45C.09,.65,0,.88,0,1.12c-.01,.08,.02,.17,.08,.23,.07,.06,.17,.08,.26,.04l.58-.08L.09,2.16c.33,.34,.69,.66,1.06,.96,.31,.22,.58,.5,.8,.82,.03,.05,.02,.04,.24,.47,.19,.38,.34,.66,.47,.92,.05,.1,.24,.45,.45,.8,.38,.64,.44,.62,.91,1.37,.49,.76,.5,.89,.81,1.23,.14,.15,.24,.27,.45,.51,.19,.18,.34,.4,.45,.64,.05,.14,.08,.28,.09,.42"/></g></g></svg>