<?xml version="1.0" encoding="UTF-8"?>
<svg id="Layer_1" data-name="Layer 1" xmlns="http://www.w3.org/2000/svg" viewBox="0 0 194.6 194.6">
  <defs>
    <style>
      .cls-1, .cls-2, .cls-3, .cls-4, .cls-5 {
        fill: #fff;
      }

      .cls-6 {
        fill: #78e5ff;
      }

      .cls-7 {
        stroke: #fff;
      }

      .cls-7, .cls-8 {
        fill: none;
      }

      .cls-7, .cls-8, .cls-2, .cls-3, .cls-4, .cls-5 {
        stroke-miterlimit: 10;
      }

      .cls-8, .cls-4, .cls-5 {
        stroke: #33b0ce;
      }

      .cls-9 {
        fill: #219ebc;
      }

      .cls-2 {
        stroke: #e6e7e8;
        stroke-width: .1px;
      }

      .cls-10 {
        fill: #33b0ce;
      }

      .cls-11 {
        fill: #027f9d;
      }

      .cls-3 {
        stroke: #219ebc;
      }

      .cls-5 {
        stroke-width: .5px;
      }
    </style>
  </defs>
  <circle class="cls-2" cx="97.3" cy="97.3" r="97.25"/>
  <g>
    <path class="cls-10" d="M7.65,71.78c2.2-7.82,5.07-14,7.24-18.08,2.34-4.42,6.31-11.03,12.54-18.03,3.46-3.88,8.1-8.44,14.1-12.87,5.66-4.18,10.79-6.96,14.37-8.7,8.3-4.04,15.34-5.9,18.67-6.68,1.24-.29,6.24-1.44,12.98-2.07,3.32-.31,6.18-.42,8.4-.44V96.61H4.24c0-3.96,.25-9.07,1.21-14.94,.65-3.96,1.47-7.32,2.19-9.89Z"/>
    <path class="cls-9" d="M122.77,8.31c7.82,2.2,14,5.07,18.08,7.24,4.42,2.34,11.03,6.31,18.03,12.54,3.88,3.46,8.44,8.1,12.87,14.1,4.18,5.66,6.96,10.79,8.7,14.37,4.04,8.3,5.9,15.34,6.68,18.67,.29,1.24,1.44,6.24,2.07,12.98,.31,3.32,.42,6.18,.44,8.4H97.94V4.91c3.96,0,9.07,.25,14.94,1.21,3.96,.65,7.32,1.47,9.89,2.19Z"/>
    <path class="cls-6" d="M186.23,123.43c-2.2,7.82-5.07,14-7.24,18.08-2.34,4.42-6.31,11.03-12.54,18.03-3.46,3.88-8.1,8.44-14.1,12.87-5.66,4.18-10.79,6.96-14.37,8.7-8.3,4.04-15.34,5.9-18.67,6.68-1.24,.29-6.24,1.44-12.98,2.07-3.32,.31-6.18,.42-8.4,.44V98.61h91.7c0,3.96-.25,9.07-1.21,14.94-.65,3.96-1.47,7.32-2.19,9.89h0Z"/>
    <path class="cls-11" d="M71.11,186.9c-7.82-2.2-14-5.07-18.08-7.24-4.42-2.34-11.03-6.31-18.03-12.54-3.88-3.46-8.44-8.1-12.87-14.1-4.18-5.66-6.96-10.79-8.7-14.37-4.04-8.3-5.9-15.34-6.68-18.67-.29-1.24-1.44-6.24-2.07-12.98-.31-3.32-.42-6.18-.44-8.4H95.94v91.7c-3.96,0-9.07-.25-14.94-1.21-3.96-.65-7.32-1.47-9.89-2.19h0Z"/>
    <path class="cls-1" d="M31.94,86.1l.75-39.49h-1.6l-1.13-1.34,8.37-10.66h17.68l11.19-12.27,10.82,11.91,4.7,.18,2.82,7.88,3.39,3.58v.71l-1.51,1.79-.56-.18-2.16-2.15c.21,13.44,.43,26.88,.65,40.32-17.81-.1-35.61-.19-53.41-.29h0Z"/>
    <rect class="cls-10" x="36.94" y="70.61" width="4" height="11"/>
    <rect class="cls-10" x="42.94" y="70.61" width="4" height="11"/>
    <rect class="cls-10" x="55.94" y="71.61" width="6" height="14"/>
    <rect class="cls-10" x="65.94" y="70.61" width="5" height="11"/>
    <rect class="cls-10" x="71.94" y="70.61" width="5" height="11"/>
    <rect class="cls-10" x="77.94" y="70.61" width="5" height="11"/>
    <rect class="cls-10" x="70.94" y="50.61" width="4" height="9"/>
    <rect class="cls-10" x="64.94" y="50.61" width="4" height="9"/>
    <rect class="cls-10" x="58.94" y="50.61" width="4" height="9"/>
    <rect class="cls-10" x="38.94" y="51.61" width="5" height="9"/>
    <g>
      <polygon class="cls-4" points="105.92 39.89 132.38 35.02 158.83 38.11 142.81 42.07 131.9 44.76 105.92 39.89"/>
      <path class="cls-4" d="M144.44,45.57c1.08,3.79,1.55,7.3,1.71,10.32-1.22,1.09-2.78,2.29-4.72,3.4-3.1,1.79-6.02,2.68-8.19,3.15-1.61-.29-3.81-.86-6.2-2.07-2.97-1.5-5.02-3.38-6.26-4.72,.19-3.2,.53-6.57,1.07-10.09,.14-.92,.29-1.82,.45-2.71l10.07,1.89,10.91-2.69c.41,1.1,.8,2.26,1.15,3.5h0Z"/>
      <ellipse class="cls-8" cx="132.39" cy="38.18" rx="1.71" ry=".7"/>
      <path class="cls-5" d="M148.68,39.43c.29,.07,.68,.17,.9,.5,.13,.2,.18,.41,.17,.52-.07,1.62-.13,3.25-.2,4.87-.07,.07-.27,.29-.32,.64-.05,.37,.1,.65,.14,.73-.21,.21-.54,.59-.67,1.16-.11,.49-.01,.89,.09,1.31,.12,.51,.32,.9,.46,1.16l-.09,2.41c-.12,.11-.29,.29-.43,.55-.18,.33-.22,.64-.23,.81-.07,10.2-.13,20.41-.2,30.61,.26-.42,.51-.85,.76-1.27,.07,.74,.2,1.7,.41,1.71,.23,0,.43-1.2,.57-1.19,.17,.03-.03,1.81,.16,1.85,.18,.03,.5-1.46,.72-1.43,.13,.02,.17,.59,.51,1.35v-31.32c-.45-.19-.44-.54-.59-.93-.09-.25-.22-.43-.41-.55v-2.52c.28-.23,.5-.64,.59-1.19,.05-.32,.11-.97-.2-1.68-.22-.52-.55-.86-.75-1.04,.05-.07,.21-.31,.2-.64,0-.24-.1-.41-.14-.49l.23-4.82c-.05-.31-.17-.73-.49-1.07-.43-.46-1.02-.57-2.79-.68-1.38-.08-2.47-.1-2.72-.1-.77-.01-1.76-.03-2.92-.07-2.47-.09-4.94-.18-7.41-.27l-.42,.31,2.87,.13c2.12,.14,4.31,.24,6.55,.29,1.04,.03,2.07,.04,3.09,.05,.51,.02,1.57,.07,2.55,.29h.01Z"/>
    </g>
    <path class="cls-1" d="M55.11,122.19c.68-1.1,1.95-2.81,4.08-4.24,.79-.52,2.49-1.63,5.02-2.04,.71-.11,2.71-.37,5.15,.29,.77,.21,2.46,.74,4.24,2.07,1.67,1.24,2.62,2.59,2.98,3.14,.24,.37,1.03,1.62,1.57,3.45,.15,.52,.64,2.33,.5,4.76-.17,2.8-1.09,4.82-1.75,6.22-.44,.93-1.34,2.69-3.92,5.8-2.58,3.11-4.88,5.23-6.03,6.27-2.82,2.57-6.78,6.02-11.83,10.04-5.13-4.1-9.28-7.77-12.41-10.67-2.33-2.16-5.03-4.74-7.61-8.65-1.51-2.29-2.69-4.58-3.24-7.42-.53-2.69-.23-4.54-.13-5.1,.39-2.13,1.24-3.61,1.52-4.08,1.11-1.82,2.43-2.85,3.22-3.45,.63-.48,1.86-1.4,3.73-2.04,2.42-.83,4.45-.68,5.36-.6,.88,.07,2.03,.18,3.42,.76,1.43,.59,2.4,1.39,2.98,1.88,.81,.68,1.36,1.31,1.72,1.72,.62,.71,1.09,1.37,1.43,1.88h0Z"/>
    <g>
      <path class="cls-3" d="M128.44,133.37c-1.79-.68-3.58-1.35-5.37-2.03-1.22-.5-2.11-1.08-2.69-1.52-.66-.5-.98-.86-1.2-1.14-.44-.57-.9-1.16-.84-1.92,.06-.82,.67-1.37,.9-1.57-1.12,.65-1.48,1.37-1.62,1.8-.24,.75-.04,1.31,.36,3.31,.2,1.01,.34,1.83,.42,2.34l.24,3.07,.06,1.14c.66-.18,1.68-.46,2.95-.78,2.02-.52,2.49-.61,3.25-.88,.88-.31,2.12-.84,3.55-1.83h0Z"/>
      <path class="cls-3" d="M119.18,125.11c1.36-1.12,4.47-2.52,4.75-2.64,1.02-.53,2.54-1.22,4.47-1.73,1.42-.37,2.5-.49,4.6-.71,2.55-.26,4.46-.33,7.31-.41,2.69-.08,4.03-.11,4.92-.04,2.49,.19,4.3,.68,6.45,1.26,3.04,.82,4.74,1.57,5.4,1.87,3.07,1.4,4.01,2.45,4.45,3.49,.17,.39,.49,1.17,.19,1.93-.25,.63-.81,.95-1.94,1.56-.55,.3-1.27,.65-2.17,.96-1.34-.88-3.15-1.94-5.41-2.89-1.05-.44-2.88-1.2-5.41-1.74-.71-.15-3.57-.74-7.4-.6-1.85,.07-3.16,.27-5.23,.6-2.45,.39-3.86,.61-5.77,1.26-2.52,.86-4.14,1.87-4.69,2.23-.74,.48-1.33,.93-1.74,1.27-1.21-.58-2.01-1.28-2.47-1.75-.7-.71-.95-1.23-1.08-1.68-.07-.25-.16-.61-.05-1.06,.11-.49,.43-.84,.83-1.16h0Z"/>
      <path class="cls-3" d="M147.44,133.73c.9-.15,4.54-.77,7.85-1.94,.37-.13,1.34-.53,3.27-1.32,0,0,.1-.04,2-.99,.54-.27,.86-.43,1.13-.8,.37-.5,.42-1.06,.42-1.26,.02-.68-.28-1.17-.62-1.72-.3-.5-.63-.85-.86-1.08,.37,.22,.79,.56,1.15,1.04,.44,.59,.62,1.18,.72,1.53,.06,.21,.1,.38,.12,.51,0,.39,0,.97-.05,1.68-.07,.76-.16,1.04-.29,1.87-.33,2.01-.22,2.78-.5,3.96-.02,.1-.15,.61-.32,1.33l-.13,.59c-1.07-.24-2.13-.48-3.2-.72-.57-.13-4.04-.96-4.19-.99-2.78-.66-2.89-.68-3.25-.68-.69,.02-1.46,.14-2.3-.27-.44-.22-.75-.51-.95-.72h0Z"/>
      <path class="cls-3" d="M131.17,133.22c-.38-.06-.94-.11-1.59,0-.5,.08-.9,.23-1.2,.37-.66,.44-1.7,1.04-3.05,1.55-.8,.3-1.22,.38-3.19,.88-2.12,.54-3.18,.81-4.14,1.1-1.84,.56-1.87,.72-4.15,1.52-2.33,.81-2.85,.83-5.32,1.62-1.22,.39-2.98,.99-5.08,1.83v5l7.55-1.54,6.13-.84,6.89-1.08c1.35-.12,2.89-.36,4.54-.81,.68-.19,1.32-.39,1.92-.6,.25-.63,.7-1.55,1.5-2.47,.7-.8,1.42-1.32,1.95-1.65l1.65-.81c-.6-.33-1.29-.75-2.02-1.32-.68-.54-1.24-1.08-1.68-1.57l-.72-1.17h0Z"/>
      <path class="cls-3" d="M147.44,133.73l.78,.63c.2,.1,.5,.24,.88,.33,.73,.18,.98,0,1.79,.04,.35,.02,1.06,.15,2.46,.53,1.01,.27,2.04,.48,3.06,.72,1.16,.28,2.82,.67,4.93,1.13,.94,.2,1.87,.41,2.81,.62l2.41,.39,6.7,1.29-.18,6.83-7.55-.45-4.81-.45c-2.33-.09-4.14-.27-5.38-.42-.82-.1-1.58-.21-2.53-.45-1.04-.27-1.88-.59-2.47-.84l-1.59-.78c-.34,.05-.79,.08-1.31,0-.23-.04-.44-.09-.62-.15,.42-.16,1.47-.64,2.26-1.77,.77-1.11,.85-2.22,.87-2.62,.03-.55,.09-1.6-.57-2.62-.35-.53-.77-.87-1.05-1.05l-.89-.9h0Z"/>
      <path class="cls-3" d="M140.91,129.61c-.14-.16-.28-.27-.5-.57-.27-.35-.28-.48-.43-.57-.18-.11-.5-.13-1.13,.26-.29,.27-.76,.65-1.4,1.04-.31,.19-.53,.3-1.53,.77-1.23,.58-1.85,.87-1.94,.9-1.92,.7-2.28,.79-2.28,.79-.22,.05-.68,.16-.83,.52-.08,.18-.06,.36-.03,.48,.17,.32,.4,.73,.72,1.17,0,0,.3,.41,.62,.77,.87,.97,1.97,1.56,2.75,1.97,.97,.51,.88,.4,2.01,.93,1.35,.63,1.57,.77,2.15,.98,.84,.31,1.56,.47,2.02,.56,.09-.51,.22-1.29,.32-2.26,.03-.34,.11-1.19,.13-3.61,0-.71,.01-1.69,0-2.87-.18-.64-.44-1.02-.65-1.26h0Z"/>
      <path class="cls-3" d="M135.12,137.23c-.38,.2-.9,.49-1.51,.87-.61,.38-.93,.58-1.28,.88-.65,.56-1.03,1.1-1.24,1.41-.23,.34-.64,.98-.94,1.83-.12,.35-.17,.58-.25,1.04-.09,.51-.08,.68,0,.83,.14,.26,.42,.35,.59,.41,.8,.26,1.2,.39,1.96,.52,.63,.11,.32,.12,2.14,.61,.52,.14,1.05,.26,2.1,.5,.66,.15,1.28,.28,1.98,.13,.31-.07,.55-.17,.74-.38,.25-.26,.32-.57,.34-.72l.18-.52s-.09,.2-.29,.25c-.17,.04-.29-.05-.32-.07,.05-.19,.14-.5,.27-.88,.17-.5,.3-.76,.59-1.49,.21-.52,.32-.79,.43-1.11,.14-.41,.33-.99,.5-1.74l-1.67-.43-1.96-.85-1.66-.75-.7-.34h0Z"/>
      <path class="cls-3" d="M140.7,129.38c.37,.04,.93,.14,1.52,.45,.36,.19,.6,.39,1.06,.79,.87,.76,1.53,1.36,1.65,1.47,.47,.43,1.16,1.01,2.1,1.65,.44,.37,.88,.74,1.31,1.11,.25,.2,.65,.57,.94,1.15,.29,.57,.35,1.06,.39,1.43,.03,.26,.09,.99-.15,1.9-.25,.92-.67,1.53-.79,1.68-.5,.68-1.04,1.06-1.25,1.19-.44,.29-.82,.42-1.18,.55-.71,.25-1.06,.26-1.74,.41-1.87,.41-3,1.16-3.86,1.26-.19,.02-.39,.02-.61,.16-.2,.13-.31,.3-.52,.3-.1,0-.19-.04-.24-.07,.1-.34,.27-.86,.49-1.47,.25-.68,.41-1.02,.57-1.41,.5-1.22,.69-2.27,.8-2.88,.12-.67,.17-1.37,.26-2.77,.11-1.69,.06-2.18,.12-3.76,0-.09,.02-.42,0-.87-.02-.37-.02-.59-.07-.83-.05-.26-.18-.66-.5-1.11l-.29-.32h0Z"/>
    </g>
    <line class="cls-7" x1="4.94" y1="98.11" x2="189.94" y2="98.11"/>
  </g>
</svg>