<svg xmlns="http://www.w3.org/2000/svg" width="109" height="251.84" viewBox="0 0 109 251.84">
  <path id="yogaPose" d="M105.748,77.725c-.915-1.844-1.579-2.913-5.4-8.632C93.44,58.724,94,59.7,93.59,59.018c-3.848-6.481-4.437-9.434-8.1-11.518a15.945,15.945,0,0,0-4.048-1.443A43.053,43.053,0,0,0,69.3,44.614V35.981a30.9,30.9,0,0,0,4.048-10.075c.677-3.22,1.466-7.1,0-11.518-.551-1.67-1.943-5.893-6.079-7.937a.044.044,0,0,1-.038-.013,3.666,3.666,0,0,0,.714-2.111c0-2.378-2.419-4.316-5.4-4.316s-5.4,1.938-5.4,4.316a3.659,3.659,0,0,0,.79,2.218C53.82,8.6,52.329,12.731,51.74,14.4c-1.629,4.557-.664,8.605,0,11.518A29.336,29.336,0,0,0,58.5,38.868v5.759a23.4,23.4,0,0,0-14.853,4.316c-.213.16-.414.307-.677.521-1.993,1.644-3.7,4.089-6.066,12.427-1.291,4.557-1.241,5.425-2.444,8.325-.389.922-.6,1.376-2.181,4.6-1.441,2.966-2.143,4.182-3.484,7.229-2.319,5.251-4.7,11-2.695,13.108a1.548,1.548,0,0,0,.3.267c3.321,2.459,11.857-.428,11.857-.428,3-1,7.057-2.258,12.308-3.661a21.546,21.546,0,0,1-.163,10.85,15.081,15.081,0,0,1-2.695,5.759c-4.763,6.013-9.074,5.946-20.255,12.948-3.823,2.392-7.57,4.837-9.476,6.04-3.823,2.432-3.785,2.405-4.036,2.592C8.36,133.968,2.344,138.925.439,146.8c-.752,3.127-.389,4.757,0,5.759,2.106,5.385,10.215,5.746,10.8,5.759a35.785,35.785,0,0,0,13.5,0c6.142-1.216,6.643-3.113,16.206-5.759,3.961-1.1,5.778-1.3,10.8-2.873,3.472-1.1,6.267-2.151,8.1-2.873a34.248,34.248,0,0,1,1.354,7.2c.326,4.263.489,6.387,0,8.632-.226,1-.589,2.258,0,2.873.564.615,1.767.334,2.695,0a86.6,86.6,0,0,0-1.354,23.023,52.218,52.218,0,0,0-2.695,12.948c-.489,6.2.138,9.287,0,14.391A53.662,53.662,0,0,1,55.8,234.586a10.6,10.6,0,0,0-2.695,5.759,27.331,27.331,0,0,0,0,2.873c-.025,4.37-.426,4.757,0,5.759.865,2.044,3.56,2.873,5.4,2.873,2.043,0,4.951-.962,5.4-2.873.414-1.75-1.567-2.846-2.695-5.759a13.433,13.433,0,0,1,0-8.632,109.922,109.922,0,0,0,6.079-14.5c2.469-7.349,3.133-11.879,6.079-24.36.175-.722,2.131-9.006,4.048-16.155,6.518-24.279,10.3-27.045,12.321-42.225,1.329-9.982,2.356-15.059,0-20.9-2.783-6.882-5.114-7.216-6.931-14.284a30.156,30.156,0,0,1-.226-13.309,39.456,39.456,0,0,0,17.773,3.234c3.347-.214,6.818-.561,8.1-2.873,1.579-2.846-.564-7.189-2.695-11.518ZM47.578,81.079c-6.793,3.154-8.849,3.154-9.338,2.405-.564-.882.978-2.672,2.695-5.759,4.487-8,4.475-14.471,5.4-14.391.664.067,1.3,3.447,1.228,17.745Zm17.4,56.269a33.217,33.217,0,0,0-5.878-1.577,37.63,37.63,0,0,0-4.136-.441c-6.117-.321-16.031,1-17.309,1.176a60.549,60.549,0,0,1,14.589-4.81c2.519-.481,5.465-1.844,9.112-.949a13.143,13.143,0,0,1,3.9,1.67C65.163,134.061,65.063,135.7,64.975,137.348ZM95.307,80.224c-.439,1.056-2.682,1.817-11.155,0Q82.8,70.343,81.457,60.448a96.5,96.5,0,0,0,8.1,11.518C93.339,76.59,95.9,78.808,95.307,80.224Z" transform="translate(0 -0.01)" fill="#fbd008"/>
</svg>
