<svg xmlns="http://www.w3.org/2000/svg" width="63.257" height="50.601" viewBox="0 0 63.257 50.601">
  <path id="Icon_awesome-hands-helping" data-name="Icon awesome-hands-helping" d="M48.234,18.976H33.21v5.535a7.116,7.116,0,1,1-14.233,0V12.493l-6.415,3.855a6.312,6.312,0,0,0-3.074,5.416v4.675L1.582,31A3.155,3.155,0,0,0,.426,35.324l7.907,13.7a3.164,3.164,0,0,0,4.319,1.156l10.22-5.9h13.5A6.332,6.332,0,0,0,42.7,37.953H44.28a3.159,3.159,0,0,0,3.163-3.163V28.465h.791a2.366,2.366,0,0,0,2.372-2.372V21.348A2.366,2.366,0,0,0,48.234,18.976Zm14.6-3.7-7.907-13.7A3.164,3.164,0,0,0,50.606.424l-10.22,5.9h-10.1a6.373,6.373,0,0,0-3.351.959L23.623,9.349a3.142,3.142,0,0,0-1.483,2.679V24.511a3.954,3.954,0,1,0,7.907,0v-8.7H48.234a5.538,5.538,0,0,1,5.535,5.535v2.817L61.676,19.6a3.166,3.166,0,0,0,1.156-4.319Z" transform="translate(0.002 -0.002)" fill="#304d5a"/>
</svg>
