<?xml version="1.0" encoding="UTF-8"?><svg id="Layer_1" xmlns="http://www.w3.org/2000/svg" viewBox="0 0 22.02 22.25"><defs><style>.cls-1{fill:#07292d;}</style></defs><g><circle class="cls-1" cx="5.58" cy="2.58" r="2.13"/><path class="cls-1" d="M4.15,4.88h2.67c.64,0,1.16,.52,1.16,1.16v6.83c0,.8-.65,1.44-1.44,1.44h-2.15c-.8,0-1.44-.65-1.44-1.44V6.09c0-.67,.54-1.21,1.21-1.21Z"/><rect class="cls-1" x="2.94" y="12.14" width="2.09" height="6.03" rx=".94" ry=".94"/><rect class="cls-1" x="1.57" y="12.63" width="2.09" height="6.03" rx=".94" ry=".94" transform="translate(-9.03 4.88) rotate(-37.76)"/><rect class="cls-1" x="6.06" y="12.14" width="1.93" height="9.1" rx=".87" ry=".87"/><rect class="cls-1" x="1.52" y="2.52" width="1.47" height="4.72" rx=".66" ry=".66" transform="translate(-3.12 4.78) rotate(-64.1)"/><rect class="cls-1" x="7.47" y="4.47" width="1.47" height="4.72" rx=".66" ry=".66" transform="translate(-2.42 7.8) rotate(-45)"/><rect class="cls-1" x="0" y="0" width="1.47" height="4.72" rx=".66" ry=".66"/><rect class="cls-1" x="8.69" y="7.42" width="1.47" height="4.72" rx=".66" ry=".66"/></g><g><circle class="cls-1" cx="16" cy="3.59" r="2.13"/><path class="cls-1" d="M19.61,15.32h-7.22l.97-8.09c0-.74,.6-1.34,1.34-1.34h2.42c.71,0,1.28,.58,1.28,1.28l1.21,8.15Z"/><rect class="cls-1" x="13.36" y="13.14" width="2.09" height="9.1" rx=".94" ry=".94"/><rect class="cls-1" x="18.12" y="15.1" width="1.72" height="5.44" rx=".86" ry=".86" transform="translate(15.49 43.63) rotate(-125.52)"/><rect class="cls-1" x="16.47" y="13.14" width="1.93" height="6.46" rx=".87" ry=".87"/><rect class="cls-1" x="11.94" y="3.53" width="1.47" height="4.72" rx=".66" ry=".66" transform="translate(1.84 14.71) rotate(-64.1)"/><rect class="cls-1" x="17.89" y="5.47" width="1.47" height="4.72" rx=".66" ry=".66" transform="translate(-.08 15.46) rotate(-45)"/><rect class="cls-1" x="10.42" y="1.01" width="1.47" height="4.72" rx=".66" ry=".66"/><rect class="cls-1" x="19.82" y="5.06" width="1.47" height="4.72" rx=".66" ry=".66" transform="translate(5.31 -8.24) rotate(25.9)"/></g></svg>