<?xml version="1.0" encoding="UTF-8"?><svg id="Layer_1" xmlns="http://www.w3.org/2000/svg" viewBox="0 0 27.34 22"><defs><style>.cls-1{fill:#07292d;}</style></defs><path id="Icon_awesome-hands-helping" class="cls-1" d="M20.84,8.25h-6.49v2.41c0,1.71-1.38,3.09-3.08,3.09s-3.08-1.39-3.08-3.09V5.43l-2.77,1.68c-.82,.5-1.33,1.39-1.33,2.35v2.03l-3.42,1.99c-.65,.38-.88,1.22-.5,1.87h0l3.42,5.96c.38,.66,1.21,.88,1.87,.5l4.42-2.56h5.83c1.51,0,2.73-1.23,2.73-2.75h.68c.75,0,1.37-.62,1.37-1.38v-2.75h.34c.56,0,1.02-.46,1.03-1.03h0v-2.07c0-.57-.46-1.03-1.02-1.03h0Zm6.31-1.61L23.74,.69c-.38-.66-1.21-.88-1.87-.5h0l-4.42,2.57h-4.37c-.51,0-1.01,.15-1.45,.42l-1.43,.9c-.4,.25-.64,.69-.64,1.17v5.43c0,.95,.76,1.72,1.71,1.72s1.71-.77,1.71-1.72h0v-3.78h7.86c1.32,0,2.39,1.08,2.39,2.41v1.22l3.42-1.99c.65-.38,.88-1.22,.5-1.88Z"/></svg>