<?xml version="1.0" encoding="utf-8"?>
<!-- Generator: Adobe Illustrator 26.5.0, SVG Export Plug-In . SVG Version: 6.00 Build 0)  -->
<svg version="1.1" id="Layer_1" xmlns="http://www.w3.org/2000/svg" xmlns:xlink="http://www.w3.org/1999/xlink" x="0px" y="0px"
	 viewBox="0 0 612 615.61" style="enable-background:new 0 0 612 615.61;" xml:space="preserve">
<style type="text/css">
	.st0{fill:#FFFFFF;stroke:#E6E7E8;stroke-width:0.1;stroke-miterlimit:10;}
	.st1{fill:#5EAB77;}
	.st2{fill:#219EBC;}
	.st3{fill:#FBD008;}
	.st4{fill:#EA5150;}
	.st5{fill:#FFFFFF;}
	.st6{fill:#FFFFFF;stroke:#219EBC;stroke-miterlimit:10;}
	.st7{fill:none;stroke:#219EBC;stroke-miterlimit:10;}
	.st8{fill:#414042;stroke:#000000;stroke-width:0.25;stroke-miterlimit:10;}
	.st9{fill:#FFFFFF;stroke:#FBD008;stroke-miterlimit:10;}
	.st10{fill:none;stroke:#FFFFFF;stroke-miterlimit:10;}
</style>
<circle class="st0" cx="306" cy="307.8" r="304.46"/>
<g>
	<path id="XMLID_00000015337957859707471350000008635197365655872166_" class="st1" d="M26.18,227.01
		c6.88-24.49,15.88-43.82,22.66-56.6c7.33-13.83,19.76-34.54,39.25-56.44c10.82-12.16,25.35-26.42,44.14-40.29
		c17.73-13.09,33.79-21.8,44.99-27.24c26-12.64,48.01-18.46,58.46-20.91c3.87-0.91,19.55-4.5,40.63-6.48
		c10.39-0.97,19.34-1.3,26.29-1.37c0,93.79,0,187.58,0,281.37c0,1.9,0,3.8,0,5.71c-95.69,0-191.38,0-287.07,0
		c-0.01-12.41,0.78-28.39,3.79-46.76C21.36,245.57,23.92,235.08,26.18,227.01z"/>
	<path class="st2" d="M387.12,28.32c24.49,6.88,43.82,15.88,56.6,22.66c13.83,7.33,34.54,19.76,56.44,39.25
		c12.16,10.82,26.42,25.35,40.29,44.14c13.09,17.73,21.8,33.79,27.24,44.99c12.64,26,18.46,48.01,20.91,58.46
		c0.91,3.87,4.5,19.55,6.48,40.63c0.97,10.39,1.3,19.34,1.37,26.29c-93.79,0-187.58,0-281.37,0c-1.9,0-3.8,0-5.71,0
		c0-95.69,0-191.38,0-287.07c12.41-0.01,28.39,0.78,46.76,3.79C368.56,23.49,379.06,26.05,387.12,28.32z"/>
	<path class="st3" d="M585.82,388.6c-6.88,24.49-15.88,43.82-22.66,56.6c-7.33,13.83-19.76,34.54-39.25,56.44
		c-10.82,12.16-25.35,26.42-44.14,40.29c-17.73,13.09-33.79,21.8-44.99,27.24c-26,12.64-48.01,18.46-58.46,20.91
		c-3.87,0.91-19.55,4.5-40.63,6.48c-10.39,0.97-19.34,1.3-26.29,1.37c0-93.79,0-187.58,0-281.37c0-1.9,0-3.8,0-5.71
		c95.69,0,191.38,0,287.07,0c0.01,12.41-0.78,28.39-3.79,46.76C590.64,370.04,588.08,380.53,585.82,388.6z"/>
	<path class="st4" d="M224.88,587.29c-24.49-6.88-43.82-15.88-56.6-22.66c-13.83-7.33-34.54-19.76-56.44-39.25
		c-12.16-10.82-26.42-25.35-40.29-44.14c-13.09-17.73-21.8-33.79-27.24-44.99c-12.64-26-18.46-48.01-20.91-58.46
		c-0.91-3.87-4.5-19.55-6.48-40.63c-0.97-10.39-1.3-19.34-1.37-26.29c93.79,0,187.58,0,281.37,0c1.9,0,3.8,0,5.71,0
		c0,95.69,0,191.38,0,287.07c-12.41,0.01-28.39-0.78-46.76-3.79C243.44,592.12,232.94,589.56,224.88,587.29z"/>
	<path class="st5" d="M102.1,268.48l2.35-118.77h-5l-3.53-4.04l26.17-32.05h55.29l35-36.9l33.82,35.82l14.7,0.54l8.82,23.7
		l10.59,10.77v2.15l-4.71,5.39l-1.76-0.54l-6.76-6.46c0.67,40.42,1.35,80.83,2.02,121.25C213.44,269.06,157.77,268.77,102.1,268.48z
		"/>
	<rect x="115.92" y="226.13" class="st1" width="13.53" height="32.94"/>
	<rect x="134.45" y="226.13" class="st1" width="12.65" height="32.94"/>
	<rect x="175.2" y="225.61" class="st1" width="19.12" height="44.25"/>
	<rect x="209.15" y="224.07" class="st1" width="14.41" height="35"/>
	<rect x="227.38" y="224.07" class="st1" width="15" height="35"/>
	<rect x="246.79" y="224.07" class="st1" width="14.12" height="35"/>
	<rect x="223.56" y="161.43" class="st1" width="13.53" height="27.35"/>
	<rect x="205.32" y="161.43" class="st1" width="13.53" height="27.35"/>
	<rect x="186.8" y="161.43" class="st1" width="13.82" height="27.35"/>
	<rect x="125.04" y="164.96" class="st1" width="14.12" height="27.35"/>
	<g>
		<polygon class="st6" points="332.98,128.07 415.81,112.81 498.65,122.5 448.47,134.89 414.33,143.32 		"/>
		<path class="st6" d="M452.06,145.86c3.37,11.88,4.85,22.86,5.36,32.32c-3.82,3.4-8.71,7.17-14.77,10.65
			c-9.72,5.6-18.85,8.39-25.63,9.87c-5.04-0.9-11.92-2.69-19.4-6.48c-9.3-4.71-15.71-10.58-19.61-14.77
			c0.6-10.03,1.67-20.58,3.36-31.58c0.44-2.87,0.91-5.7,1.41-8.47l31.54,5.91l34.15-8.43C449.75,138.32,450.96,141.98,452.06,145.86
			z"/>
		<ellipse class="st7" cx="415.84" cy="122.71" rx="5.36" ry="2.18"/>
		<path class="st6" d="M466.86,126.63c0.91,0.21,2.12,0.54,2.83,1.58c0.42,0.62,0.56,1.27,0.54,1.63
			c-0.21,5.08-0.42,10.17-0.64,15.25c-0.21,0.21-0.84,0.9-1,2c-0.16,1.15,0.31,2.02,0.45,2.27c-0.67,0.65-1.7,1.86-2.09,3.63
			c-0.34,1.54-0.04,2.8,0.27,4.09c0.39,1.6,0.99,2.83,1.45,3.63l-0.27,7.54c-0.38,0.34-0.92,0.9-1.36,1.72
			c-0.55,1.03-0.69,1.99-0.73,2.54c-0.21,31.94-0.42,63.89-0.62,95.83c0.8-1.32,1.6-2.65,2.39-3.97c0.23,2.31,0.64,5.33,1.29,5.36
			c0.73,0.03,1.36-3.77,1.79-3.71c0.52,0.08-0.09,5.67,0.51,5.78c0.55,0.1,1.57-4.56,2.24-4.47c0.41,0.06,0.53,1.86,0.52,4.24
			c-0.14-32.69-0.27-65.37-0.41-98.06c0.07-0.6,0.1-1.68-0.36-2.91c-0.29-0.77-0.68-1.34-1-1.72l0.09-7.9
			c0.48-0.73,1.17-2,1.45-3.72c0.16-1.01,0.33-3.04-0.64-5.27c-0.7-1.62-1.71-2.68-2.36-3.27c0.17-0.23,0.66-0.96,0.64-2
			c-0.02-0.74-0.3-1.28-0.45-1.54c0.24-5.03,0.48-10.05,0.72-15.08c-0.16-0.96-0.53-2.27-1.54-3.35c-1.35-1.44-3.19-1.8-8.73-2.13
			c-4.31-0.26-7.74-0.31-8.53-0.32c-2.41-0.04-5.51-0.1-9.13-0.21c-7.73-0.28-15.46-0.57-23.19-0.85c-0.44,0.32-0.88,0.64-1.32,0.96
			c3,0.14,6,0.28,9,0.42c6.64,0.43,13.48,0.74,20.5,0.92c3.27,0.08,6.49,0.13,9.67,0.15C460.48,125.76,463.8,125.93,466.86,126.63z"
			/>
	</g>
	<path class="st8" d="M478.34,292.9"/>
	<path class="st5" d="M173.91,385.73c2.12-3.43,6.09-8.81,12.78-13.26c2.47-1.64,7.79-5.11,15.71-6.38
		c2.23-0.36,8.49-1.16,16.12,0.9c2.42,0.65,7.71,2.33,13.26,6.47c5.23,3.89,8.2,8.1,9.33,9.82c0.76,1.15,3.24,5.06,4.91,10.8
		c0.47,1.62,2.01,7.29,1.55,14.89c-0.53,8.77-3.42,15.09-5.48,19.48c-1.37,2.91-4.2,8.41-12.28,18.17
		c-8.07,9.75-15.28,16.38-18.87,19.64c-8.84,8.04-21.22,18.86-37.04,31.43c-16.06-12.83-29.06-24.33-38.86-33.39
		c-7.3-6.75-15.74-14.85-23.81-27.09c-4.73-7.17-8.41-14.35-10.15-23.24c-1.65-8.43-0.73-14.2-0.41-15.96
		c1.21-6.68,3.88-11.3,4.77-12.77c3.48-5.71,7.62-8.93,10.08-10.8c1.96-1.5,5.82-4.38,11.67-6.38c7.58-2.59,13.92-2.12,16.78-1.88
		c2.75,0.23,6.37,0.57,10.72,2.37c4.47,1.86,7.5,4.36,9.33,5.89c2.53,2.12,4.26,4.09,5.4,5.4
		C171.36,382.06,172.84,384.11,173.91,385.73z"/>
	<g>
		<path class="st9" d="M403.3,420.73c-5.61-2.12-11.21-4.24-16.82-6.36c-3.83-1.55-6.6-3.37-8.41-4.75
			c-2.06-1.56-3.08-2.69-3.77-3.58c-1.39-1.8-2.81-3.63-2.64-6.02c0.19-2.57,2.1-4.3,2.82-4.9c-3.51,2.05-4.64,4.3-5.08,5.65
			c-0.76,2.34-0.11,4.1,1.13,10.36c0.63,3.15,1.06,5.72,1.32,7.34l0.75,9.6l0.19,3.58c2.06-0.56,5.27-1.43,9.23-2.45
			c6.33-1.63,7.81-1.92,10.17-2.75C394.93,425.5,398.84,423.83,403.3,420.73z"/>
		<path class="st9" d="M374.5,395.13c4.27-3.51,13.99-7.89,14.87-8.28c3.2-1.67,7.95-3.83,13.99-5.42
			c4.45-1.17,7.82-1.53,14.39-2.21c7.98-0.82,13.96-1.02,22.88-1.27c8.41-0.24,12.61-0.36,15.39-0.14
			c7.78,0.6,13.47,2.14,20.19,3.95c9.51,2.57,14.83,4.9,16.9,5.84c9.61,4.37,12.54,7.68,13.93,10.92c0.53,1.23,1.54,3.67,0.61,6.03
			c-0.78,1.98-2.55,2.97-6.07,4.89c-1.72,0.93-3.99,2.03-6.78,3.01c-4.19-2.76-9.87-6.06-16.95-9.04
			c-3.28-1.38-9.02-3.76-16.95-5.46c-2.21-0.48-11.18-2.31-23.16-1.88c-5.78,0.21-9.89,0.86-16.38,1.88
			c-7.68,1.21-12.1,1.91-18.07,3.95c-7.9,2.7-12.95,5.84-14.69,6.97c-2.31,1.5-4.15,2.91-5.45,3.97c-3.79-1.83-6.28-4.01-7.72-5.49
			c-2.19-2.23-2.98-3.85-3.37-5.27c-0.21-0.77-0.5-1.92-0.17-3.31C372.27,397.26,373.26,396.15,374.5,395.13z"/>
		<path class="st9" d="M462.09,421.86c2.83-0.47,14.22-2.41,24.57-6.07c1.16-0.41,4.19-1.65,10.23-4.14c0,0,0.3-0.12,6.27-3.09
			c1.68-0.84,2.69-1.35,3.55-2.52c1.17-1.58,1.3-3.32,1.32-3.96c0.05-2.12-0.89-3.65-1.95-5.38c-0.95-1.55-1.97-2.67-2.69-3.38
			c1.16,0.7,2.47,1.74,3.6,3.25c1.39,1.85,1.93,3.68,2.26,4.8c0.19,0.65,0.31,1.2,0.39,1.6c0.03,1.23,0.03,3.05-0.17,5.25
			c-0.22,2.39-0.49,3.27-0.91,5.84c-1.04,6.29-0.68,8.7-1.56,12.39c-0.07,0.31-0.47,1.9-0.99,4.16c-0.14,0.61-0.28,1.22-0.42,1.84
			c-3.34-0.75-6.68-1.51-10.03-2.26c-1.78-0.42-12.66-2.99-13.13-3.11c-8.71-2.06-9.04-2.14-10.17-2.12
			c-2.17,0.05-4.56,0.45-7.2-0.85C463.67,423.44,462.7,422.53,462.09,421.86z"/>
		<path class="st9" d="M411.02,420.26c-1.18-0.2-2.93-0.35-4.99,0c-1.55,0.26-2.82,0.73-3.75,1.16c-2.08,1.37-5.31,3.26-9.54,4.84
			c-2.51,0.94-3.83,1.19-9.99,2.76c-6.65,1.68-9.97,2.53-12.97,3.44c-5.77,1.75-5.86,2.26-12.99,4.75
			c-7.31,2.55-8.93,2.61-16.66,5.08c-3.83,1.22-9.32,3.09-15.91,5.74v15.64l23.63-4.81l19.2-2.64l21.56-3.39
			c4.24-0.38,9.05-1.14,14.22-2.54c2.13-0.58,4.14-1.21,6.02-1.88c0.78-1.97,2.19-4.84,4.71-7.72c2.18-2.5,4.44-4.14,6.12-5.18
			l5.18-2.54c-1.88-1.02-4.05-2.36-6.31-4.14c-2.14-1.68-3.88-3.38-5.27-4.9L411.02,420.26z"/>
		<path class="st9" d="M462.09,421.86l2.43,1.98c0.62,0.32,1.56,0.74,2.76,1.03c2.3,0.55,3.06,0.01,5.59,0.11
			c1.1,0.05,3.33,0.48,7.7,1.67c3.16,0.86,6.39,1.49,9.57,2.26c3.62,0.88,8.82,2.1,15.44,3.54c2.93,0.64,5.87,1.29,8.8,1.93
			l7.54,1.22l20.99,4.05l-0.56,21.37l-23.63-1.41l-15.06-1.41c-7.29-0.29-12.97-0.85-16.85-1.32c-2.57-0.31-4.96-0.65-7.91-1.41
			c-3.25-0.84-5.88-1.84-7.72-2.64l-4.99-2.45c-1.05,0.17-2.47,0.26-4.1,0c-0.72-0.12-1.37-0.29-1.93-0.47
			c1.31-0.51,4.59-2,7.06-5.55c2.42-3.49,2.66-6.94,2.73-8.19c0.1-1.73,0.28-5.02-1.79-8.19c-1.09-1.67-2.41-2.71-3.29-3.29
			L462.09,421.86z"/>
		<path class="st9" d="M442.54,408.94c-0.45-0.51-0.88-0.86-1.55-1.77c-0.83-1.11-0.87-1.51-1.34-1.79c-0.55-0.33-1.55-0.4-3.53,0.8
			c-0.92,0.83-2.39,2.05-4.38,3.25c-0.98,0.59-1.67,0.93-4.8,2.4c-3.86,1.81-5.79,2.72-6.07,2.82c-6,2.19-7.13,2.47-7.13,2.47
			c-0.69,0.17-2.12,0.51-2.61,1.62c-0.24,0.55-0.18,1.12-0.09,1.51c0.52,0.99,1.25,2.27,2.26,3.67c0,0,0.93,1.29,1.93,2.4
			c2.73,3.03,6.18,4.88,8.61,6.17c3.05,1.61,2.74,1.26,6.28,2.92c4.24,1.98,4.93,2.41,6.73,3.07c2.63,0.96,4.87,1.46,6.33,1.74
			c0.29-1.59,0.7-4.04,0.99-7.06c0.1-1.07,0.34-3.74,0.42-11.3c0.02-2.22,0.04-5.29,0-8.97C444.02,410.91,443.2,409.7,442.54,408.94
			z"/>
		<path class="st9" d="M424.41,432.81c-1.18,0.62-2.82,1.52-4.73,2.71c-1.92,1.19-2.9,1.81-4.01,2.77
			c-2.02,1.74-3.22,3.45-3.88,4.41c-0.72,1.05-2,3.06-2.93,5.72c-0.38,1.09-0.52,1.81-0.78,3.25c-0.29,1.61-0.25,2.14,0,2.61
			c0.43,0.8,1.32,1.1,1.84,1.27c2.5,0.81,3.75,1.21,6.14,1.62c1.96,0.34,1.01,0.37,6.71,1.91c1.63,0.44,3.28,0.81,6.57,1.55
			c2.08,0.47,4.01,0.88,6.21,0.4c0.96-0.21,1.72-0.54,2.33-1.18c0.78-0.81,0.99-1.79,1.06-2.26c0.19-0.54,0.38-1.08,0.56-1.62
			c-0.02,0.05-0.27,0.64-0.92,0.78c-0.52,0.11-0.92-0.16-0.99-0.21c0.16-0.59,0.44-1.57,0.85-2.75c0.54-1.58,0.93-2.39,1.84-4.66
			c0.65-1.62,0.99-2.47,1.34-3.46c0.45-1.27,1.04-3.11,1.55-5.44l-5.24-1.36l-6.14-2.65l-5.19-2.35
			C425.87,433.51,425.14,433.16,424.41,432.81z"/>
		<path class="st9" d="M441.88,408.25c1.17,0.11,2.91,0.43,4.75,1.4c1.13,0.6,1.87,1.22,3.32,2.47c2.73,2.38,4.8,4.27,5.15,4.59
			c1.47,1.34,3.64,3.17,6.57,5.15c1.37,1.16,2.74,2.33,4.11,3.49c0.78,0.63,2.02,1.79,2.95,3.6c0.91,1.77,1.1,3.31,1.23,4.48
			c0.09,0.8,0.28,3.1-0.48,5.94c-0.77,2.88-2.11,4.79-2.47,5.27c-1.55,2.13-3.26,3.31-3.92,3.74c-1.39,0.9-2.58,1.32-3.68,1.71
			c-2.23,0.79-3.31,0.81-5.44,1.27c-5.84,1.27-9.39,3.62-12.09,3.95c-0.59,0.07-1.22,0.06-1.92,0.49c-0.64,0.4-0.98,0.94-1.62,0.94
			c-0.32,0-0.58-0.13-0.74-0.23c0.32-1.07,0.83-2.68,1.54-4.6c0.79-2.14,1.29-3.18,1.78-4.4c1.55-3.82,2.15-7.1,2.51-9.03
			c0.39-2.11,0.53-4.3,0.81-8.68c0.34-5.28,0.19-6.84,0.38-11.76c0.01-0.27,0.05-1.32-0.01-2.72c-0.05-1.17-0.07-1.85-0.23-2.61
			c-0.17-0.82-0.56-2.07-1.58-3.47L441.88,408.25z"/>
	</g>
	<line class="st10" x1="15.53" y1="310.87" x2="596.47" y2="310.87"/>
</g>
</svg>
