<svg xmlns="http://www.w3.org/2000/svg" width="148.492" height="131.993" viewBox="0 0 148.492 131.993">
  <path id="Icon_awesome-brain" data-name="Icon awesome-brain" d="M53.622,0A16.45,16.45,0,0,0,37.69,12.426c-.206,0-.361-.052-.567-.052a16.514,16.514,0,0,0-16.5,16.5,15.2,15.2,0,0,0,.438,3.609A20.446,20.446,0,0,0,10.389,60.557a20.547,20.547,0,0,0,2.346,36.865,18.892,18.892,0,0,0-.361,3.635,18.55,18.55,0,0,0,18.561,18.561,17.479,17.479,0,0,0,3.094-.309,18.517,18.517,0,0,0,36.092-5.878V16.5A16.514,16.514,0,0,0,53.622,0Zm94.87,78.371A20.517,20.517,0,0,0,138.1,60.557a20.29,20.29,0,0,0,2.14-9A20.623,20.623,0,0,0,127.43,32.483a16.346,16.346,0,0,0-16.061-20.108c-.206,0-.387.052-.567.052A16.467,16.467,0,0,0,78.371,16.5v96.932a18.517,18.517,0,0,0,36.092,5.878,17.479,17.479,0,0,0,3.094.309,18.55,18.55,0,0,0,18.561-18.561,18.892,18.892,0,0,0-.361-3.635A20.624,20.624,0,0,0,148.492,78.371Z" fill="#5eab77"/>
</svg>
