<svg xmlns="http://www.w3.org/2000/svg" width="164.784" height="162.229" viewBox="0 0 164.784 162.229">
  <path id="Icon_simple-sentiayoga" data-name="Icon simple-sentiayoga" d="M82.392,137.114A119.486,119.486,0,0,1,68.839,146.7a69.752,69.752,0,0,0,13.554,15.533A69.563,69.563,0,0,0,95.946,146.7a117.324,117.324,0,0,1-13.554-9.582Zm44.492-20.1c1.442,12.644.309,24.466-3.3,34.352-10.484-1.876-21.443-6.793-31.824-14.347a57.8,57.8,0,0,0,35.12-19.995Zm-88.984,0a57.773,57.773,0,0,0,35.12,20c-10.381,7.554-21.34,12.471-31.824,14.347-3.6-9.886-4.738-21.7-3.3-34.342Zm84.709-4.238a51.717,51.717,0,0,1-32.493,18.474,127.92,127.92,0,0,0,13.2-14.449,132.537,132.537,0,0,0,19.29-4.035Zm-80.435,0a130.651,130.651,0,0,0,19.29,4.025,126.936,126.936,0,0,0,13.2,14.438A51.624,51.624,0,0,1,42.175,112.77ZM64.606,50.788A133.167,133.167,0,0,1,82.392,31.533a133.087,133.087,0,0,1,17.786,19.244,136.874,136.874,0,0,1,25.83,5.546,133.576,133.576,0,0,1-8.033,24.791,133.09,133.09,0,0,1,8.033,24.791,137.5,137.5,0,0,1-25.83,5.546A134.2,134.2,0,0,1,82.392,130.7a133.087,133.087,0,0,1-17.786-19.244,136.881,136.881,0,0,1-25.83-5.546,133.574,133.574,0,0,1,8.033-24.791,133.091,133.091,0,0,1-8.033-24.791,137.5,137.5,0,0,1,25.83-5.546ZM17.92,102.346a69.124,69.124,0,0,0-6.88,19.326,71.651,71.651,0,0,0,20.444,3.792,112.054,112.054,0,0,1,1.648-16.355,114.556,114.556,0,0,1-15.2-6.753Zm128.944,0a117.421,117.421,0,0,1-15.212,6.763,112.336,112.336,0,0,1,1.648,16.365,72.005,72.005,0,0,0,20.444-3.792,68.554,68.554,0,0,0-6.9-19.326ZM136.256,61.14c11.823,5.07,21.628,11.964,28.528,19.975-6.9,8.01-16.705,14.9-28.528,19.974a56.169,56.169,0,0,0-.01-39.949Zm-107.728,0a56.169,56.169,0,0,0,.01,39.949C16.715,96.02,6.9,89.125,0,81.115,6.9,73.1,16.705,66.21,28.528,61.14Zm101.826,1.49a50.125,50.125,0,0,1,0,36.968,126.374,126.374,0,0,0-6.107-18.484A126.376,126.376,0,0,0,130.355,62.631Zm-95.925,0a126.373,126.373,0,0,0,6.107,18.484A126.372,126.372,0,0,0,34.43,99.6a50.125,50.125,0,0,1,0-36.968ZM31.484,36.775a72.005,72.005,0,0,0-20.444,3.782,68.552,68.552,0,0,0,6.9,19.326A117.131,117.131,0,0,1,33.132,53.12a112.336,112.336,0,0,1-1.648-16.365Zm101.816,0a112.067,112.067,0,0,1-1.648,16.345,114.559,114.559,0,0,1,15.2,6.753,69.124,69.124,0,0,0,6.88-19.326,71.649,71.649,0,0,0-20.444-3.792ZM90.116,31A51.594,51.594,0,0,1,122.61,49.45a131.962,131.962,0,0,0-19.29-4.015A126.937,126.937,0,0,0,90.116,31ZM74.668,31a126.936,126.936,0,0,0-13.2,14.438,132.536,132.536,0,0,0-19.29,4.035A51.717,51.717,0,0,1,74.668,31Zm17.1-5.779c10.381-7.554,21.34-12.471,31.824-14.347,3.6,9.886,4.738,21.7,3.3,34.342a57.773,57.773,0,0,0-35.12-20Zm-53.864,20c-1.442-12.654-.309-24.476,3.3-34.372C51.681,12.725,62.639,17.642,73.02,25.2A57.8,57.8,0,0,0,37.9,45.191ZM95.956,15.513A70.38,70.38,0,0,0,82.392,0,69.563,69.563,0,0,0,68.839,15.533a117.324,117.324,0,0,1,13.554,9.582,119.484,119.484,0,0,1,13.554-9.582Z" fill="#eb5050"/>
</svg>
