<svg xmlns="http://www.w3.org/2000/svg" width="119.752" height="155.683" viewBox="0 0 119.752 155.683">
  <path id="Icon_ionic-ios-water" data-name="Icon ionic-ios-water" d="M102.552,40.2c-12.873-18.187-25.26-29.377-33.98-36.15a3.2,3.2,0,0,0-3.892-.037c-8.607,6.4-20.994,18.113-33.867,36.113C16.854,59.588,7.236,80.694,6.787,104.083c0,.449-.037.936-.037,1.385a48.907,48.907,0,0,0,4.079,19.5,52.582,52.582,0,0,0,5.688,9.842c10.665,14.595,29.115,24.25,50.071,24.25,33.082,0,59.913-23.988,59.913-53.589C126.5,81.629,116.4,59.737,102.552,40.2ZM70.368,139.11h-.187a3.281,3.281,0,0,1-.973-6.4c16.878-5.314,26.046-14.408,32.333-30.237a3.255,3.255,0,0,1,6.287,1.16v.524C107.791,123.468,91.026,139.11,70.368,139.11Z" transform="translate(-6.75 -3.374)" fill="#08d2fb"/>
</svg>
